<svg xmlns="http://www.w3.org/2000/svg" xmlns:xlink="http://www.w3.org/1999/xlink" id="svg" width="400" height="41.058" viewBox="0 0 400 41.058"><style>:root{--borderColor-muted:#363A4F}@media (prefers-color-scheme:light){:root{--borderColor-muted:#CCD0DA}}</style><g id="svgg"><path id="path0" fill="var(--borderColor-muted)" fill-rule="evenodd" stroke="none" d="M360.790 1.671 C 360.900 1.699,361.079 1.699,361.189 1.671 C 361.298 1.642,361.208 1.619,360.989 1.619 C 360.771 1.619,360.681 1.642,360.790 1.671 M355.242 3.554 L 354.564 4.265 355.274 3.586 C 355.665 3.213,355.985 2.893,355.985 2.875 C 355.985 2.791,355.873 2.894,355.242 3.554 M378.846 8.587 C 378.569 8.868,378.369 9.099,378.400 9.099 C 378.431 9.099,378.683 8.868,378.959 8.587 C 379.236 8.305,379.436 8.075,379.405 8.075 C 379.373 8.075,379.122 8.305,378.846 8.587 M367.183 10.719 L 366.733 11.203 367.216 10.753 C 367.666 10.335,367.752 10.236,367.666 10.236 C 367.647 10.236,367.430 10.454,367.183 10.719 M351.747 11.118 C 351.011 11.540,350.225 12.032,350.002 12.211 L 349.596 12.537 350.032 12.990 C 350.981 13.975,352.792 15.208,354.259 15.866 C 354.927 16.165,354.962 16.201,354.962 16.580 L 354.962 16.979 353.568 16.911 C 351.318 16.800,349.088 16.039,347.531 14.851 C 346.902 14.371,347.009 14.385,346.311 14.686 L 345.749 14.927 345.749 15.862 L 345.749 16.798 343.958 16.873 C 342.973 16.914,278.985 16.947,201.762 16.946 L 61.357 16.944 61.050 16.558 C 60.844 16.301,60.354 15.985,59.572 15.606 C 57.925 14.809,57.974 14.816,57.407 15.276 C 55.993 16.425,53.576 17.255,51.322 17.366 L 49.929 17.434 49.929 17.035 C 49.929 16.656,49.964 16.620,50.632 16.321 C 52.097 15.663,53.910 14.430,54.856 13.447 L 55.291 12.996 54.890 12.668 C 54.669 12.488,53.870 11.987,53.115 11.556 L 51.741 10.771 50.732 11.847 C 49.009 13.682,46.936 15.200,44.527 16.388 C 42.414 17.429,42.646 17.401,36.208 17.401 L 30.610 17.401 30.347 16.875 C 29.241 14.661,25.552 14.624,24.855 16.820 C 24.701 17.306,21.655 16.338,19.995 15.277 L 19.461 14.936 17.948 15.686 C 15.683 16.808,12.338 17.856,11.020 17.856 C 10.720 17.856,10.691 17.891,10.691 18.252 C 10.691 18.689,10.705 18.696,11.797 18.820 C 13.073 18.964,15.879 19.944,18.222 21.064 L 19.441 21.646 20.060 21.236 C 20.810 20.738,21.633 20.388,23.170 19.915 C 23.809 19.719,24.400 19.531,24.484 19.499 C 24.577 19.464,24.777 19.657,24.997 19.996 C 26.298 22.004,29.356 21.857,30.351 19.740 L 30.595 19.221 36.342 19.221 C 41.839 19.221,42.119 19.231,42.782 19.455 C 45.342 20.317,49.559 23.216,51.214 25.251 L 51.675 25.817 52.309 25.463 C 53.518 24.788,54.650 24.095,54.979 23.830 L 55.309 23.563 54.592 22.899 C 53.331 21.731,51.733 20.675,50.470 20.174 C 49.975 19.978,49.930 19.928,49.929 19.576 L 49.929 19.191 51.436 19.249 C 53.519 19.328,55.410 19.958,57.219 21.175 L 57.969 21.679 58.812 21.319 C 60.098 20.771,60.976 20.238,61.177 19.884 L 61.359 19.564 202.525 19.563 L 343.691 19.562 344.221 19.920 C 344.513 20.117,345.237 20.492,345.830 20.753 L 346.908 21.227 347.799 20.641 C 349.588 19.464,351.806 18.771,353.796 18.768 L 354.962 18.766 354.961 19.136 C 354.961 19.471,354.910 19.525,354.421 19.719 C 353.724 19.996,352.333 20.797,351.595 21.348 C 350.984 21.804,349.616 23.037,349.616 23.132 C 349.616 23.223,351.426 24.383,352.356 24.889 L 353.219 25.358 353.678 24.794 C 355.332 22.761,359.550 19.862,362.108 19.000 C 362.772 18.776,363.052 18.766,368.549 18.766 L 374.295 18.766 374.541 19.290 C 375.528 21.388,378.596 21.545,379.880 19.562 C 380.199 19.070,380.264 19.025,380.535 19.104 C 383.054 19.842,383.936 20.187,384.831 20.781 L 385.449 21.191 386.668 20.609 C 389.069 19.462,391.773 18.524,393.126 18.370 C 394.164 18.251,394.200 18.232,394.200 17.792 C 394.200 17.437,394.169 17.401,393.871 17.401 C 392.553 17.401,389.207 16.353,386.943 15.231 L 385.429 14.481 384.895 14.822 C 383.236 15.883,380.190 16.851,380.036 16.365 C 379.339 14.169,375.649 14.206,374.543 16.420 L 374.280 16.946 368.682 16.946 C 362.245 16.946,362.477 16.975,360.364 15.933 C 357.963 14.749,355.881 13.227,354.175 11.409 C 353.628 10.826,353.159 10.350,353.133 10.350 C 353.106 10.350,352.483 10.696,351.747 11.118 M366.307 21.576 C 366.447 21.603,366.678 21.603,366.818 21.576 C 366.959 21.549,366.844 21.527,366.562 21.527 C 366.281 21.527,366.166 21.549,366.307 21.576 M343.588 25.192 C 343.800 25.411,344.000 25.590,344.031 25.590 C 344.062 25.590,343.914 25.411,343.702 25.192 C 343.490 24.973,343.291 24.794,343.259 24.794 C 343.228 24.794,343.376 24.973,343.588 25.192 M340.404 24.939 C 340.404 24.956,340.800 25.353,341.285 25.820 L 342.167 26.670 341.316 25.789 C 340.527 24.970,340.404 24.856,340.404 24.939 M362.440 25.102 C 362.580 25.129,362.811 25.129,362.951 25.102 C 363.092 25.074,362.977 25.052,362.695 25.052 C 362.414 25.052,362.299 25.074,362.440 25.102 M372.931 26.443 C 373.271 26.787,373.575 27.069,373.606 27.069 C 373.637 27.069,373.385 26.787,373.045 26.443 C 372.705 26.099,372.402 25.817,372.371 25.817 C 372.339 25.817,372.592 26.099,372.931 26.443 M368.977 29.229 C 368.977 29.448,369.001 29.538,369.029 29.428 C 369.058 29.319,369.058 29.140,369.029 29.030 C 369.001 28.921,368.977 29.011,368.977 29.229 M367.069 33.807 L 366.619 34.291 367.103 33.841 C 367.552 33.423,367.638 33.324,367.552 33.324 C 367.534 33.324,367.316 33.541,367.069 33.807 M360.904 36.132 C 361.014 36.160,361.193 36.160,361.302 36.132 C 361.412 36.103,361.322 36.080,361.103 36.080 C 360.884 36.080,360.795 36.103,360.904 36.132"/></g></svg>