<svg xmlns="http://www.w3.org/2000/svg" xmlns:xlink="http://www.w3.org/1999/xlink" id="svg" width="400" height="51.636" version="1.1" viewBox="0 0 400 51.636"><style>:root{--borderColor-muted:#363A4F}@media (prefers-color-scheme:light){:root{--borderColor-muted:#CCD0DA}}</style><g id="svgg"><path id="path0" fill="var(--borderColor-muted)" fill-rule="evenodd" stroke="none" d="M184.385 14.791 C 180.462 15.819,178.353 19.258,179.221 23.212 C 179.600 24.943,179.746 24.668,177.916 25.674 C 169.922 30.069,162.339 31.816,156.488 30.613 C 147.807 28.826,145.354 20.411,152.485 16.874 C 157.799 14.238,163.973 15.682,166.247 20.092 C 166.445 20.475,166.616 20.807,166.628 20.830 C 166.735 21.034,167.515 20.551,167.448 20.322 C 167.096 19.127,165.169 16.888,163.812 16.099 C 157.062 12.172,146.729 16.511,147.333 23.019 C 147.997 30.160,153.419 33.997,162.848 33.998 C 168.870 33.998,173.658 32.712,179.548 29.510 C 181.114 28.659,181.261 28.602,181.375 28.807 C 181.601 29.216,182.839 30.449,183.612 31.037 C 188.637 34.860,198.240 35.126,206.887 31.682 L 208.258 31.135 209.130 31.499 C 214.746 33.837,222.238 29.431,221.792 24.053 L 221.738 23.398 223.324 22.500 C 231.763 17.720,239.367 16.192,246.083 17.927 C 253.002 19.715,255.081 25.567,250.123 29.297 C 247.213 31.487,242.422 31.809,240.322 29.957 C 240.108 29.768,239.515 30.185,239.515 30.524 C 239.515 31.249,243.233 32.351,245.091 32.175 C 253.916 31.342,256.758 22.845,249.818 18.039 C 242.925 13.265,232.014 13.637,221.539 19.001 L 219.988 19.796 219.479 19.306 C 214.437 14.455,203.974 13.301,195.067 16.613 L 194.074 16.983 193.446 16.551 C 190.916 14.810,187.123 14.074,184.385 14.791 M189.364 15.753 C 190.446 16.042,191.426 16.453,192.328 16.997 L 192.959 17.378 191.964 17.822 C 189.547 18.903,187.339 20.101,182.367 23.031 C 181.435 23.579,180.608 24.053,180.530 24.083 C 180.312 24.167,180.000 22.596,180.000 21.413 C 180.000 17.066,184.377 14.420,189.364 15.753 M213.095 17.674 C 215.299 18.136,217.497 19.052,218.475 19.917 L 218.912 20.303 215.183 22.503 C 211.797 24.500,208.056 26.565,206.275 27.420 L 205.589 27.748 202.710 24.709 C 201.126 23.037,199.294 21.182,198.639 20.587 L 197.449 19.505 197.847 19.339 C 202.188 17.525,208.894 16.793,213.095 17.674 M198.280 21.690 C 199.216 22.530,204.662 28.231,204.588 28.295 C 204.565 28.315,204.082 28.500,203.515 28.705 C 194.788 31.866,187.238 31.642,182.986 28.096 L 182.639 27.807 184.562 26.648 C 185.620 26.011,187.630 24.792,189.030 23.939 C 190.430 23.087,192.664 21.855,193.994 21.202 L 196.412 20.015 196.903 20.455 C 197.173 20.697,197.793 21.253,198.280 21.690 M220.879 24.347 C 220.993 24.781,220.711 26.007,220.303 26.857 C 218.792 29.999,213.426 32.082,210.020 30.849 L 209.433 30.637 210.747 29.944 C 212.733 28.898,214.798 27.707,217.879 25.831 C 220.968 23.951,220.798 24.035,220.879 24.347 M4.000 25.273 L 4.000 26.303 73.697 26.303 L 143.394 26.303 143.394 25.273 L 143.394 24.242 73.697 24.242 L 4.000 24.242 4.000 25.273 M256.727 25.273 L 256.727 26.303 326.424 26.303 L 396.121 26.303 396.121 25.273 L 396.121 24.242 326.424 24.242 L 256.727 24.242 256.727 25.273"/></g></svg>